<?xml version="1.0" standalone="no"?>
<!DOCTYPE svg PUBLIC "-//W3C//DTD SVG 20010904//EN"
 "http://www.w3.org/TR/2001/REC-SVG-20010904/DTD/svg10.dtd">
<svg version="1.0" xmlns="http://www.w3.org/2000/svg"
 width="1280.000000pt" height="853.000000pt" viewBox="0 0 1280.000000 853.000000"
 preserveAspectRatio="xMidYMid meet">

<g transform="translate(0.000000,853.000000) scale(0.100000,-0.100000)"
fill="#000000" stroke="none">
<path d="M128 8458 c-3 -58 -9 -81 -30 -113 -15 -22 -34 -59 -43 -82 -17 -41
-16 -43 8 -75 67 -87 75 -206 22 -314 -24 -50 -27 -63 -21 -117 15 -133 46
-256 81 -320 37 -68 42 -101 23 -174 -9 -38 -8 -58 7 -117 10 -39 29 -91 42
-116 41 -80 25 -160 -60 -292 -39 -62 -66 -159 -50 -180 14 -17 26 -75 25
-117 -2 -39 25 -138 39 -146 5 -4 9 -14 9 -24 0 -34 28 -45 103 -43 39 2 76 7
83 13 8 6 12 51 13 131 2 244 -34 457 -85 497 -17 14 -25 32 -30 72 -3 30 -8
57 -10 61 -2 3 -1 8 3 10 12 5 50 88 63 138 9 32 12 146 10 390 -3 333 5 822
15 906 9 82 6 84 -110 84 l-103 0 -4 -72z"/>
<path d="M7631 8443 c-6 -49 -15 -121 -20 -160 -6 -48 -16 -82 -30 -99 -12
-15 -21 -35 -21 -45 0 -9 -3 -25 -6 -34 -6 -15 -8 -15 -25 1 -22 20 -49 12
-49 -14 0 -23 -16 -38 -51 -47 -19 -5 -33 -23 -58 -75 -31 -66 -33 -77 -43
-252 -14 -243 -11 -589 5 -601 7 -4 58 -6 115 -3 86 5 107 3 128 -11 24 -15
28 -15 56 2 26 15 44 17 120 11 64 -4 105 -2 142 8 28 8 63 17 77 20 l25 5 -2
460 c-2 391 -5 463 -18 489 -26 49 -40 197 -27 280 6 40 8 90 5 112 l-7 40
-51 0 -52 0 2 -102 c1 -57 -3 -112 -8 -123 -29 -56 -86 -87 -90 -47 0 9 -2 24
-2 32 -1 8 1 29 5 47 6 28 4 32 -15 35 -19 3 -21 10 -22 68 -1 92 0 90 -38 90
l-33 0 -12 -87z"/>
<path d="M12402 8468 c-32 -41 -24 -115 13 -124 29 -7 61 2 68 20 8 19 -39
116 -56 116 -8 0 -19 -6 -25 -12z"/>
<path d="M11350 8421 c-25 -3 -40 -9 -34 -13 19 -13 94 -26 115 -21 19 5 19 7
3 24 -9 11 -22 18 -28 17 -6 0 -31 -4 -56 -7z"/>
<path d="M12758 8264 c-20 -14 -56 -28 -80 -31 -29 -4 -60 -18 -95 -44 -29
-22 -64 -44 -78 -51 -34 -15 -115 -127 -149 -208 -33 -76 -72 -141 -137 -227
-55 -72 -83 -147 -83 -222 0 -44 4 -57 23 -72 20 -16 34 -18 90 -13 106 10
133 20 200 78 34 30 93 71 129 91 37 20 87 47 111 60 24 14 59 25 78 25 l33 0
0 320 c0 176 -1 320 -2 319 -2 0 -20 -12 -40 -25z"/>
<path d="M6900 8069 c-25 -17 -48 -36 -51 -42 -4 -7 -9 -59 -12 -117 -3 -60
-12 -125 -22 -152 -20 -58 -80 -127 -131 -153 -22 -11 -42 -24 -46 -30 -5 -6
-11 -5 -17 4 -6 9 -11 10 -15 2 -4 -6 -18 1 -35 19 l-28 30 -41 -27 c-23 -15
-42 -34 -42 -43 0 -25 -29 -60 -50 -60 -10 0 -26 8 -35 17 -14 13 -21 14 -36
5 -32 -20 -47 -14 -65 28 -14 32 -22 39 -37 34 -21 -7 -65 -53 -101 -106 -22
-34 -38 -43 -167 -102 -46 -22 -80 -44 -88 -59 -7 -14 -36 -34 -64 -47 -29
-12 -64 -36 -79 -53 -24 -29 -28 -30 -51 -18 -28 15 -44 79 -28 109 11 21 13
240 2 247 -11 6 -35 -23 -50 -62 -7 -18 -20 -38 -28 -45 -21 -17 -76 -106
-116 -185 -19 -38 -50 -96 -70 -131 -50 -87 -55 -121 -23 -151 41 -39 60 -111
51 -195 -14 -120 -11 -158 15 -221 52 -124 24 -279 -53 -304 -19 -6 -58 -32
-88 -58 -54 -46 -125 -83 -158 -83 -10 0 -54 -11 -97 -25 -119 -38 -234 -31
-234 14 0 8 -5 9 -19 1 -25 -13 -37 -53 -51 -165 -6 -49 -20 -136 -30 -193
-29 -150 -29 -152 27 -182 71 -38 87 -77 93 -227 5 -114 7 -123 31 -150 39
-41 65 -99 77 -172 13 -71 41 -135 63 -139 10 -2 18 20 30 80 23 117 71 227
121 277 33 32 38 41 23 41 -10 0 -26 -7 -36 -16 -24 -22 -67 -20 -114 4 -76
38 -102 82 -129 214 -29 142 -14 243 54 363 42 72 59 84 117 79 57 -5 70 -19
78 -83 13 -100 26 -121 76 -121 53 0 139 60 139 98 0 21 47 62 73 62 33 0 97
-61 97 -93 0 -35 -36 -92 -92 -146 -35 -34 -50 -58 -57 -91 -7 -33 -20 -53
-47 -74 -33 -27 -81 -112 -70 -124 10 -9 148 40 204 72 32 19 78 42 102 52 59
23 173 90 196 115 13 14 17 34 15 79 -1 33 3 69 9 81 16 28 69 49 129 49 33 0
56 6 72 19 l23 19 -27 55 c-27 53 -30 98 -6 112 4 3 -6 25 -22 49 -37 52 -33
80 14 101 33 14 351 57 562 75 172 15 385 46 397 58 14 14 2 59 -22 80 -21 17
-26 48 -11 70 7 11 12 10 28 -7 l19 -20 26 28 c18 19 26 36 24 55 -3 24 0 27
20 23 13 -2 22 0 21 6 -1 5 10 11 26 12 15 2 27 -1 27 -6 0 -5 7 -9 15 -9 8 0
15 5 15 10 0 6 16 10 36 10 38 0 104 -33 104 -52 0 -16 41 -48 61 -48 10 0 33
-8 52 -19 51 -28 91 -35 107 -17 13 17 59 12 72 -7 4 -7 16 -6 36 2 24 10 36
10 66 -3 38 -16 39 -18 36 -78 -1 -32 2 -38 18 -38 29 0 141 55 157 77 9 13
27 18 59 18 54 1 61 6 46 35 -6 11 -10 33 -8 47 3 26 3 26 22 8 13 -14 17 -28
13 -56 -7 -56 12 -77 68 -77 40 1 46 4 52 26 3 15 -1 35 -11 52 -18 31 -12 90
8 90 11 0 20 -7 70 -60 25 -26 40 -26 26 1 -6 11 -10 24 -8 29 5 13 74 -22
108 -55 16 -16 30 -23 30 -17 0 7 10 12 23 12 26 0 77 -48 77 -72 0 -30 12
-48 31 -48 24 0 24 11 -1 33 -22 19 -26 47 -9 64 9 9 -9 33 -70 95 -44 45 -93
105 -107 133 -14 27 -39 66 -55 85 l-29 34 0 -32 c0 -38 -17 -42 -48 -9 -20
21 -21 31 -17 115 4 91 4 92 -16 82 -11 -6 -23 -18 -26 -26 -9 -24 -23 -15
-23 15 0 16 -5 42 -10 57 l-11 27 -34 -33 c-32 -31 -35 -39 -35 -92 0 -34 7
-72 16 -90 9 -17 13 -40 10 -54 -6 -22 -10 -24 -46 -18 -37 6 -40 5 -40 -17
-1 -75 -46 -55 -117 50 -1 2 -9 -2 -17 -8 -22 -19 -55 -4 -62 27 -3 15 -10 46
-16 70 -6 23 -8 58 -5 77 6 35 5 35 -31 35 -20 0 -49 6 -64 14 -23 12 -29 12
-39 0 -9 -11 -9 -17 1 -29 15 -18 15 -86 1 -112 -7 -13 -5 -36 7 -76 14 -53
14 -59 -1 -74 -13 -14 -20 -14 -47 -3 -17 7 -40 26 -52 42 -18 26 -19 34 -9
68 11 38 5 100 -9 100 -5 0 -11 -13 -15 -30 -7 -34 -9 -35 -50 -44 -23 -5 -36
-2 -48 11 -41 41 -80 90 -94 116 -20 39 -79 90 -114 100 -16 4 -29 14 -29 21
0 8 -12 17 -26 20 -46 12 -56 31 -57 109 0 40 4 92 8 117 12 63 11 107 -8 245
-9 66 -17 147 -17 181 0 68 -22 219 -48 336 l-17 77 -45 -30z m-330 -1101 c15
-10 22 -10 32 0 35 35 100 -4 112 -66 2 -15 13 -68 22 -119 10 -51 15 -96 10
-100 -18 -18 -102 -8 -155 20 -32 16 -69 27 -93 27 -54 0 -75 14 -89 59 -15
51 10 141 47 170 30 23 84 27 114 9z m-602 -188 c23 -10 57 -30 75 -43 17 -13
40 -27 50 -30 10 -4 25 -23 33 -42 8 -19 17 -35 20 -35 3 0 22 14 43 30 25 20
50 31 77 33 l39 2 3 -56 c3 -66 -10 -109 -36 -109 -10 0 -38 18 -62 40 -25 22
-50 40 -56 40 -6 0 -17 -21 -24 -46 -32 -113 -191 -193 -275 -138 -41 27 -55
71 -55 174 0 173 55 231 168 180z m-39 -446 c24 -20 31 -34 31 -63 0 -56 -23
-81 -75 -81 -36 0 -47 5 -70 32 -39 47 -26 88 40 122 39 20 38 20 74 -10z
m-77 -215 c19 -24 19 -28 3 -65 -20 -48 -29 -54 -85 -54 -25 0 -92 -7 -148
-14 -120 -16 -155 -10 -170 32 -11 31 -2 61 23 82 20 16 241 49 314 47 35 -2
48 -7 63 -28z m-24 -186 c-4 -22 -48 -31 -48 -10 0 19 10 27 32 27 13 0 18 -6
16 -17z"/>
<path d="M3310 7525 c-11 -13 -5 -15 49 -15 48 0 61 3 61 15 0 11 -12 15 -49
15 -31 0 -53 -5 -61 -15z"/>
<path d="M9230 7171 c0 -4 11 -6 25 -3 14 2 25 6 25 8 0 2 -11 4 -25 4 -14 0
-25 -4 -25 -9z"/>
<path d="M9185 7160 c-3 -5 1 -10 9 -10 9 0 16 5 16 10 0 6 -4 10 -9 10 -6 0
-13 -4 -16 -10z"/>
<path d="M9454 7136 c-21 -18 -24 -25 -13 -26 17 0 56 37 47 46 -3 3 -19 -6
-34 -20z"/>
<path d="M8864 7109 c-69 -35 -116 -77 -154 -136 -15 -23 -30 -40 -34 -36 -3
3 -9 -8 -12 -26 -4 -17 -11 -34 -16 -37 -6 -4 -8 1 -5 12 3 11 11 38 16 60 9
32 29 58 86 113 74 70 85 88 34 53 -54 -36 -89 -71 -123 -125 -20 -31 -36 -59
-36 -62 0 -4 -8 -14 -17 -23 -16 -16 -16 -16 -9 3 9 23 9 25 7 45 -1 13 -2 13
-11 0 -5 -8 -12 -12 -15 -8 -13 12 27 85 73 132 45 46 45 48 13 30 -18 -11
-49 -37 -68 -59 -25 -29 -36 -36 -42 -27 -12 19 -63 -43 -91 -112 -22 -51 -50
-76 -50 -43 0 16 -54 70 -62 62 -3 -3 -3 7 -1 22 l4 28 -20 -23 c-11 -13 -23
-40 -26 -60 -4 -20 -10 -47 -15 -59 -15 -37 5 -157 33 -206 36 -60 66 -90 80
-79 7 5 23 9 36 8 29 -3 111 -108 111 -143 0 -29 -5 -29 -42 2 -46 39 -50 30
-16 -37 17 -34 31 -73 31 -87 -1 -46 -45 -155 -72 -178 -39 -34 -16 -27 65 17
45 25 86 40 107 40 19 0 49 3 66 6 30 6 31 8 33 63 l1 56 7 -55 c6 -48 7 -43
8 43 1 68 5 96 13 91 7 -4 8 -20 4 -41 -3 -19 -3 -59 1 -89 5 -43 10 -54 23
-53 9 2 51 -1 94 -5 l77 -8 0 -37 c0 -21 2 -40 5 -43 9 -9 55 4 49 13 -3 5 -6
55 -7 111 -3 97 -5 108 -44 193 -23 49 -41 90 -40 91 1 1 22 -1 47 -6 25 -4
75 -11 111 -15 64 -6 67 -7 89 -46 12 -22 28 -43 35 -46 18 -6 92 -129 116
-192 13 -36 19 -76 19 -137 0 -64 3 -85 13 -81 8 3 12 35 12 113 l0 109 -44
78 c-41 75 -84 177 -77 184 2 2 27 -2 57 -8 58 -12 71 -24 138 -119 52 -75 62
-108 68 -227 4 -71 10 -103 19 -107 35 -14 29 148 -8 213 -20 36 -21 43 -8 51
24 16 35 12 53 -20 10 -16 27 -35 38 -40 10 -6 37 -34 60 -62 35 -44 39 -56
35 -87 -3 -20 -2 -61 3 -91 7 -47 9 -49 10 -18 0 20 6 40 12 44 6 3 9 14 6 24
-5 19 17 35 34 24 16 -10 9 11 -16 48 -14 20 -25 44 -25 52 0 26 -31 109 -51
138 -11 14 -19 33 -19 41 0 9 -9 31 -19 49 -10 18 -22 43 -26 56 -5 19 -3 22
20 22 49 0 91 -27 142 -91 28 -35 87 -102 132 -149 l81 -85 -20 48 c-11 26
-47 80 -80 119 -33 40 -60 77 -60 84 0 19 51 31 95 23 22 -4 76 -8 121 -8 122
-1 253 -29 239 -51 -2 -4 7 -12 21 -19 14 -6 22 -16 19 -21 -4 -6 -17 -4 -35
5 -41 21 -60 19 -113 -15 -26 -16 -52 -30 -58 -30 -6 0 -9 -10 -7 -22 2 -18
-2 -22 -21 -23 -13 0 -26 -6 -29 -14 -3 -10 1 -12 17 -8 17 4 22 0 27 -21 3
-15 12 -39 19 -53 10 -19 12 -35 5 -60 -9 -37 -15 -126 -12 -201 l2 -46 48
-11 c26 -7 53 -13 59 -14 7 -2 19 -12 27 -23 17 -22 23 -13 29 46 3 27 4 24 5
-15 2 -52 9 -62 63 -95 46 -28 140 -136 133 -154 -14 -35 -56 -19 -156 60 -58
47 -184 124 -201 124 -4 0 -4 -7 -1 -15 4 -8 3 -32 -1 -53 l-8 -37 -9 30 c-4
17 -7 48 -6 69 2 39 2 39 -47 52 -28 8 -72 19 -100 25 -27 6 -53 17 -58 25 -9
16 -197 11 -287 -7 -145 -30 -303 -107 -493 -242 -44 -31 -76 -46 -110 -50
-56 -8 -91 6 -84 32 3 14 -3 14 -45 -7 -60 -28 -186 -70 -193 -64 -16 16 4 50
80 135 73 82 80 93 53 81 -52 -24 -63 -31 -61 -41 1 -6 -14 -10 -32 -11 -29
-1 -36 3 -41 23 -6 26 -45 46 -52 26 -2 -6 -8 -9 -13 -5 -5 3 -9 -17 -9 -45 0
-28 4 -51 9 -51 15 0 23 -56 16 -101 l-7 -40 -132 -64 c-73 -36 -142 -76 -154
-89 -11 -14 -39 -30 -61 -35 -23 -6 -60 -16 -82 -22 -23 -6 -51 -21 -64 -35
-12 -13 -29 -24 -38 -24 -8 0 -76 -60 -150 -132 -125 -123 -197 -182 -197
-160 0 4 37 51 83 103 111 127 158 189 150 202 -3 5 -1 7 5 3 14 -8 55 50 46
65 -4 8 -3 9 4 5 12 -7 36 29 28 42 -3 4 0 14 6 22 8 12 9 12 4 -3 -13 -41 18
1 99 136 109 178 132 213 216 313 84 101 196 192 292 238 69 32 217 76 258 76
12 0 19 7 19 19 0 14 -6 19 -20 18 -11 -1 -20 -4 -20 -8 0 -4 -16 -3 -35 1
-19 4 -37 4 -40 0 -3 -4 -25 -11 -50 -14 -25 -4 -45 -12 -45 -18 0 -7 -17 -9
-47 -5 -53 6 -113 -13 -113 -36 0 -8 -28 -29 -62 -47 -87 -45 -187 -112 -194
-130 -3 -8 -27 -33 -54 -55 -27 -22 -49 -43 -49 -48 -1 -4 -12 -20 -25 -35
-14 -15 -34 -38 -47 -52 -12 -14 -28 -41 -36 -60 -8 -19 -24 -44 -36 -54 -12
-12 -16 -21 -9 -24 12 -4 -22 -42 -39 -42 -5 0 -7 -5 -4 -10 4 -6 -8 -27 -25
-47 -17 -19 -36 -46 -42 -59 -6 -13 -15 -24 -21 -24 -5 0 -6 -7 -3 -15 3 -9
-1 -18 -9 -21 -8 -4 -15 -11 -15 -17 0 -5 -12 -26 -26 -45 -22 -28 -24 -36
-13 -43 11 -7 10 -9 -4 -9 -10 0 -15 -4 -12 -10 3 -5 0 -10 -8 -10 -21 0 -50
-37 -43 -55 3 -9 2 -13 -4 -10 -15 9 -107 -87 -102 -107 2 -10 10 -18 18 -18
8 0 12 5 9 10 -3 6 -1 10 4 10 6 0 20 9 31 20 11 11 26 20 33 19 6 0 2 -5 -11
-11 -13 -7 -21 -17 -18 -25 3 -8 -1 -16 -9 -19 -8 -3 -11 -12 -8 -21 4 -11 2
-14 -5 -9 -7 4 -12 3 -12 -2 0 -5 -10 -12 -22 -16 -22 -5 -22 -6 -5 -19 26
-18 31 -82 8 -84 -14 -1 -17 4 -13 23 3 19 0 24 -17 24 -20 0 -26 12 -22 52 2
12 -3 16 -13 12 -9 -3 -16 -15 -16 -25 0 -10 -11 -26 -25 -35 -28 -18 -33 -34
-10 -34 8 0 15 -4 15 -10 0 -5 8 -10 18 -10 15 -1 15 -2 -2 -12 -11 -6 -34
-11 -52 -10 -18 1 -36 -3 -39 -8 -4 -6 -12 -7 -18 -3 -7 4 -6 0 2 -10 7 -9 10
-17 5 -18 -5 0 -18 -3 -29 -5 -11 -3 -37 -5 -58 -5 -44 0 -60 -22 -31 -44 15
-11 17 -16 7 -26 -11 -11 -13 -9 -13 7 0 15 -2 16 -9 5 -5 -8 -16 -11 -26 -7
-11 4 -24 -2 -37 -16 -15 -18 -18 -19 -14 -5 3 11 0 20 -9 24 -20 7 0 33 25
33 10 0 20 7 24 15 4 10 -1 14 -17 12 -19 -2 -22 2 -19 33 1 19 9 41 16 50 7
8 16 23 19 32 3 9 25 29 49 44 127 80 273 216 375 350 33 43 100 145 149 225
148 239 266 383 402 489 39 30 69 56 67 58 -1 2 -25 -8 -52 -21 -53 -28 -215
-168 -309 -269 l-62 -66 -193 -21 c-293 -31 -479 -49 -634 -61 -77 -6 -164
-13 -192 -17 -49 -5 -53 -4 -53 16 0 14 6 21 19 21 10 0 65 5 122 10 92 9 107
13 127 36 12 14 22 36 22 50 0 22 -4 24 -47 24 -123 1 -234 53 -254 119 -9 30
-19 40 -56 55 -51 21 -109 18 -151 -10 -34 -22 -67 -27 -51 -7 6 7 7 13 2 13
-16 0 -33 -23 -33 -45 0 -13 3 -16 8 -8 4 7 12 9 18 5 9 -7 11 -206 3 -276 -4
-32 -26 -46 -35 -23 -4 12 -19 13 -71 9 -57 -4 -68 -2 -80 14 -19 26 -47 7
-52 -37 -2 -24 -5 -29 -10 -17 -5 16 -14 14 -86 -18 -44 -20 -91 -39 -105 -44
-18 -6 -3 -9 55 -10 94 -2 123 -5 130 -12 4 -3 -80 -9 -185 -13 -104 -4 -190
-11 -190 -15 0 -4 36 -11 80 -15 44 -4 80 -11 80 -16 0 -13 -34 -11 -110 6
-87 19 -90 19 -90 -9 0 -21 -17 -33 -127 -90 -71 -37 -135 -70 -143 -75 -8 -5
-44 -23 -80 -40 -76 -35 -167 -115 -172 -151 -2 -20 -9 -25 -33 -26 -47 -2
-51 -4 -35 -14 12 -8 11 -10 -6 -10 -39 0 -84 -78 -84 -143 0 -65 -11 -86 -83
-162 -59 -62 -68 -67 -96 -62 -42 9 -59 0 -66 -34 -5 -23 -1 -36 19 -60 14
-17 26 -37 26 -44 0 -19 -82 -230 -114 -292 -14 -28 -31 -80 -39 -116 l-13
-64 90 59 c94 60 205 111 268 123 32 6 38 4 53 -19 21 -31 62 -35 105 -9 40
23 51 52 33 86 -13 26 -12 29 14 52 15 13 37 27 48 31 11 3 79 30 150 59 72
30 175 70 230 89 55 19 296 115 535 212 278 113 448 177 472 178 43 0 68 -18
68 -50 0 -19 -7 -26 -30 -30 -16 -4 -30 -10 -30 -15 0 -5 -5 -9 -10 -9 -6 0
-53 -20 -104 -45 -52 -25 -100 -45 -105 -45 -6 0 -39 -13 -73 -29 -35 -16 -76
-33 -93 -37 -16 -4 -34 -10 -40 -14 -5 -4 -41 -20 -80 -35 -162 -62 -195 -75
-295 -115 -324 -129 -520 -209 -559 -229 -24 -13 -52 -20 -62 -18 -18 5 -18 4
1 -20 34 -44 22 -91 -30 -118 -45 -23 -70 -18 -107 21 l-34 36 -42 -17 c-71
-27 -218 -115 -290 -172 -65 -52 -172 -183 -199 -243 -7 -17 -16 -30 -20 -30
-5 0 -8 -7 -8 -15 0 -8 -10 -23 -22 -35 -27 -25 -15 -40 36 -49 l35 -6 -49
-134 c-27 -74 -59 -181 -70 -238 -12 -56 -37 -148 -56 -205 -19 -56 -34 -115
-34 -131 0 -15 -31 -124 -69 -240 -106 -323 -313 -1065 -412 -1472 -21 -88
-48 -191 -58 -230 -11 -38 -36 -140 -56 -225 -56 -237 -103 -414 -140 -535
-19 -60 -37 -122 -41 -137 l-6 -28 734 0 735 0 61 30 c72 37 186 62 244 55 54
-7 102 -35 106 -63 l3 -22 1975 0 1974 0 112 77 c62 42 115 79 118 83 7 8 191
129 270 177 99 59 229 120 385 178 117 44 145 56 290 126 159 76 229 123 344
227 82 75 155 166 220 273 88 144 272 351 480 539 165 149 204 184 236 215 29
28 150 143 331 315 119 114 160 168 222 295 19 38 41 75 50 81 8 6 12 16 9 21
-4 6 0 13 8 17 8 3 15 13 15 23 0 10 9 35 20 56 11 20 20 44 20 52 0 8 5 15
10 15 7 0 10 264 10 773 l0 772 -78 -81 c-169 -177 -327 -364 -402 -473 -19
-27 -142 -194 -178 -240 -64 -82 -149 -158 -184 -164 -47 -7 -89 30 -112 101
-24 72 -10 139 75 352 12 30 26 80 31 110 29 168 88 313 162 400 25 30 72 89
103 130 31 41 59 77 63 80 3 3 28 34 54 70 58 77 314 334 404 404 l62 49 0
1020 0 1019 -27 -7 c-16 -3 -35 -13 -44 -21 -10 -9 -33 -14 -58 -13 -36 3 -46
-2 -80 -35 -47 -46 -104 -64 -205 -65 -65 -1 -86 4 -129 26 -35 17 -67 26 -97
25 -48 -1 -205 -46 -215 -62 -3 -6 -15 -10 -26 -10 -12 0 -19 -7 -19 -19 0
-18 -52 -51 -82 -51 -20 0 -38 21 -38 43 0 26 -91 115 -126 122 -16 3 -48 11
-71 17 -23 6 -62 7 -86 4 -33 -5 -47 -3 -57 9 -18 22 -27 19 -68 -23 -32 -32
-50 -41 -130 -60 -51 -13 -109 -34 -129 -48 -44 -30 -57 -30 -83 -2 -18 19
-23 37 -23 73 0 6 -28 10 -69 9 -53 -1 -76 -6 -98 -22 -16 -13 -48 -22 -76
-24 -66 -5 -173 -79 -174 -119 0 -40 -20 -49 -129 -61 -125 -13 -172 -4 -186
36 -8 23 -6 30 9 42 10 7 23 15 29 17 6 2 3 15 -8 30 -21 32 -47 34 -116 10
l-48 -17 -28 27 c-24 22 -35 25 -65 21 -20 -4 -44 -2 -54 4 -16 9 -25 5 -54
-22 -38 -37 -81 -53 -121 -48 -26 3 -46 18 -75 57 -14 19 -15 18 -57 -28 -23
-26 -48 -47 -54 -47 -18 0 -26 39 -21 104 3 61 -6 61 -43 -3 -29 -47 -79 -101
-96 -101 -8 0 -13 13 -13 36 0 19 -5 44 -11 55 -10 19 -13 17 -46 -27 -35 -46
-36 -48 -21 -74 24 -42 7 -60 -53 -60 -54 0 -72 17 -48 47 9 10 14 42 14 84
l0 68 -21 -27 c-57 -72 -62 -77 -74 -66 -6 6 -13 26 -16 45 -5 30 -1 40 35 79
61 67 77 83 102 103 23 18 23 18 -10 0 -36 -19 -161 -140 -161 -156 0 -5 -12
-26 -27 -48 -22 -30 -35 -39 -58 -39 -33 0 -53 22 -71 80 l-11 35 -7 -40 c-4
-22 -12 -51 -18 -66 l-11 -25 -30 27 c-35 32 -32 61 11 115 30 38 42 43 42 17
0 -15 2 -15 9 -4 5 8 7 19 5 25 -5 14 38 57 81 80 26 15 27 16 5 10 -60 -15
-131 -82 -218 -202 -17 -23 -32 -39 -35 -35 -6 11 0 127 8 152 11 36 24 23 14
-15 -6 -19 -9 -45 -7 -57 3 -19 6 -17 27 18 13 22 25 54 26 70 1 21 12 37 35
53 48 32 12 27 -56 -9z m-68 -121 c-4 -23 -12 -46 -19 -50 -12 -7 -37 8 -37
22 0 10 49 70 57 70 3 0 3 -19 -1 -42z m-261 -35 c-4 -16 -7 -57 -6 -91 2 -41
-1 -62 -8 -58 -6 4 -10 26 -10 49 0 23 -3 54 -6 70 -5 16 -3 33 5 42 20 24 33
18 25 -12z m262 -119 c-9 -18 -16 -23 -22 -15 -4 7 1 21 11 32 23 26 29 17 11
-17z m311 19 c6 -11 6 -25 -1 -40 -13 -28 -52 -30 -85 -5 l-24 18 27 18 c15
10 35 15 48 11 17 -5 19 -4 7 4 -13 9 -13 11 2 11 9 0 21 -8 26 -17z m-390
-54 c-30 -19 -43 -2 -27 38 l11 28 15 -29 c12 -24 13 -30 1 -37z m1242 52 c28
-8 38 -35 20 -56 -9 -11 -35 -15 -99 -14 -106 1 -136 9 -136 34 0 11 11 25 25
32 26 13 147 16 190 4z m-1404 -38 c-11 -11 -19 6 -11 24 8 17 8 17 12 0 3
-10 2 -21 -1 -24z m423 23 c16 -20 3 -46 -24 -46 -13 0 -33 9 -46 20 -21 17
-22 21 -9 30 22 14 66 12 79 -4z m-570 -13 c13 -26 19 -187 6 -171 -5 7 -23
18 -39 23 -59 20 -60 76 -2 83 24 3 27 7 23 35 -3 25 -8 31 -23 29 -16 -2 -16
-1 -4 7 21 15 28 14 39 -6z m82 4 c-1 -4 -1 -14 -1 -22 0 -8 -4 -15 -10 -15
-5 0 -10 12 -10 26 0 14 5 24 11 22 6 -2 10 -7 10 -11z m734 -17 c0 -36 -29
-33 -33 3 -3 23 0 28 15 25 12 -2 18 -12 18 -28z m245 15 c0 -8 -4 -15 -10
-15 -5 0 -10 7 -10 15 0 8 5 15 10 15 6 0 10 -7 10 -15z m150 -1 c0 -8 -4 -13
-9 -9 -5 3 -12 1 -16 -5 -3 -5 -17 -10 -31 -10 -17 0 -24 5 -24 20 0 17 7 20
40 20 30 0 40 -4 40 -16z m-1033 -56 c-2 -13 -4 -3 -4 22 0 25 2 35 4 23 2
-13 2 -33 0 -45z m53 22 l-8 -35 -1 31 c-1 17 2 34 6 37 11 12 12 3 3 -33z
m530 14 c0 -8 -4 -14 -10 -14 -5 0 -10 9 -10 21 0 11 5 17 10 14 6 -3 10 -13
10 -21z m-610 -14 c0 -5 -5 -10 -11 -10 -5 0 -7 5 -4 10 3 6 8 10 11 10 2 0 4
-4 4 -10z m231 -33 c-8 -8 -11 -7 -11 4 0 9 3 19 7 23 4 4 9 2 11 -4 3 -7 -1
-17 -7 -23z m-266 -21 c21 -31 10 -56 -25 -56 -29 0 -40 15 -40 56 0 33 43 33
65 0z m191 -15 c11 9 14 7 14 -14 0 -14 -6 -27 -12 -29 -10 -4 -10 -10 -1 -31
8 -16 9 -29 3 -32 -12 -8 -31 37 -37 90 -3 33 -2 37 7 22 9 -14 15 -16 26 -6z
m284 0 c0 -5 3 -17 6 -26 6 -14 0 -16 -37 -13 -35 2 -44 7 -46 23 -2 11 0 14
3 8 8 -18 34 -16 34 2 0 8 9 15 20 15 11 0 20 -4 20 -9z m97 -17 c8 -22 -18
-37 -36 -20 -7 8 -10 19 -7 25 10 16 36 13 43 -5z m101 -11 c3 -19 -1 -23 -22
-23 -28 0 -41 14 -32 36 9 24 50 13 54 -13z m193 1 c9 -11 6 -16 -12 -23 -54
-20 -130 8 -95 34 19 14 92 6 107 -11z m449 -24 c-37 -6 -53 -3 -46 9 3 4 22
5 43 2 l38 -5 -35 -6z m-435 -90 c-3 -5 -20 -10 -36 -10 -18 0 -28 4 -24 10 3
6 20 10 36 10 18 0 28 -4 24 -10z m-811 -34 c48 -17 63 -40 45 -72 -7 -13 -15
-24 -18 -23 -9 1 -81 89 -81 100 0 12 7 11 54 -5z m136 -26 c6 -11 8 -20 6
-20 -3 0 -10 9 -16 20 -6 11 -8 20 -6 20 3 0 10 -9 16 -20z m163 -92 c32 -64
50 -113 56 -158 5 -36 7 -67 4 -70 -14 -15 -123 169 -123 208 0 11 -13 38 -30
60 -16 23 -30 44 -30 47 0 3 17 5 38 5 l39 0 46 -92z m557 17 c0 -8 6 -15 14
-15 15 0 40 -62 34 -82 -2 -6 -19 4 -39 23 -35 36 -49 89 -23 89 8 0 14 -7 14
-15z m-703 -47 c-3 -8 -6 -5 -6 6 -1 11 2 17 5 13 3 -3 4 -12 1 -19z m-189
-63 c-2 -14 -7 -26 -13 -26 -5 0 -11 12 -13 26 -2 18 1 25 13 25 12 0 15 -7
13 -25z m2024 -19 c83 -14 115 -28 173 -78 19 -16 23 -15 80 24 79 55 126 63
202 37 32 -11 85 -27 118 -35 32 -9 71 -23 85 -33 14 -9 51 -25 83 -36 l58
-18 27 22 c59 47 83 52 153 31 35 -11 74 -20 87 -20 13 0 36 -7 52 -15 42 -22
59 -89 71 -281 7 -123 15 -178 32 -230 21 -63 25 -69 57 -75 19 -4 40 -15 47
-25 7 -10 13 -15 13 -12 0 4 33 -11 74 -32 73 -38 74 -39 167 -34 66 4 121 14
184 34 143 46 194 54 239 35 51 -22 124 -91 134 -128 11 -44 -20 -101 -82
-146 -28 -21 -98 -69 -156 -108 -123 -82 -326 -233 -389 -289 -72 -63 -277
-253 -314 -291 -12 -12 -35 -39 -52 -59 -16 -21 -52 -63 -78 -92 -27 -30 -56
-73 -66 -95 -23 -54 -50 -167 -57 -237 -2 -30 -9 -59 -14 -64 -6 -6 -10 -20
-10 -33 0 -12 -11 -47 -24 -77 -34 -76 -129 -165 -231 -217 -96 -48 -107 -55
-167 -96 -26 -18 -51 -33 -57 -33 -11 0 -52 -20 -61 -30 -3 -3 -21 -17 -40
-30 -19 -14 -48 -40 -65 -59 -16 -19 -39 -45 -50 -57 -11 -12 -40 -45 -65 -74
-25 -29 -112 -121 -193 -204 -119 -122 -150 -148 -158 -136 -8 12 -9 11 -7 -5
2 -12 -3 -20 -12 -20 -19 0 -15 52 5 75 8 8 13 17 13 20 -2 9 15 55 21 60 19
15 120 223 126 259 7 42 39 95 110 186 62 80 157 263 213 410 29 77 66 142
161 285 144 215 144 215 222 297 32 34 84 97 115 140 32 43 85 110 118 149 34
39 83 97 111 130 94 112 187 200 332 313 71 56 86 80 73 117 -8 23 -26 37 -83
64 -39 19 -73 38 -75 43 -2 4 -13 7 -24 7 -11 0 -88 33 -172 74 -89 44 -171
78 -199 81 -43 7 -53 4 -115 -34 -37 -22 -83 -46 -102 -52 -19 -7 -42 -18 -50
-25 -9 -7 -63 -35 -120 -61 -309 -141 -498 -273 -654 -453 -114 -131 -151
-182 -324 -440 -310 -463 -293 -440 -481 -654 -207 -235 -487 -464 -810 -664
-138 -86 -702 -410 -846 -487 -245 -130 -508 -279 -670 -380 -99 -62 -212
-129 -250 -150 -204 -110 -411 -230 -422 -243 -21 -26 -15 -56 24 -129 20 -37
62 -116 92 -175 58 -110 132 -208 158 -208 19 0 95 45 118 70 12 13 18 34 17
60 -2 48 12 58 91 63 62 5 111 -12 172 -59 20 -15 46 -28 58 -29 35 -4 37 -5
37 -12 0 -5 -22 -31 -48 -59 -51 -55 -100 -84 -142 -84 -14 0 -51 -13 -81 -29
-30 -16 -75 -35 -101 -41 -29 -8 -50 -19 -53 -30 -3 -10 -27 -24 -57 -34 -28
-9 -72 -29 -97 -44 -25 -16 -81 -41 -123 -56 -83 -30 -170 -78 -214 -119 -15
-15 -57 -40 -93 -58 -145 -69 -199 -99 -264 -143 -38 -25 -73 -46 -77 -46 -19
0 -59 52 -105 136 -65 121 -74 149 -90 300 -15 135 -41 219 -70 230 -33 13
-593 -292 -635 -345 -3 -4 -41 -35 -84 -69 -81 -65 -151 -140 -167 -180 -9
-23 -25 -28 -47 -14 -13 9 -10 119 6 183 24 94 128 240 237 334 30 25 107 79
172 120 65 41 188 119 273 173 197 126 238 146 274 132 39 -14 67 -12 88 7 22
20 23 33 3 33 -8 0 -15 5 -15 10 0 6 4 10 8 10 4 0 27 29 50 64 37 57 144 166
163 166 3 0 46 23 95 52 159 93 230 127 295 144 85 22 172 65 368 182 41 24
108 62 150 85 42 22 95 53 119 69 41 29 319 170 457 233 39 17 135 70 215 116
80 47 175 100 212 118 36 19 96 56 133 83 53 39 64 52 55 63 -7 9 -8 15 0 20
5 3 10 18 10 32 0 13 9 38 21 54 28 40 118 105 156 113 54 12 93 15 93 8 0 -4
-43 -50 -96 -101 -80 -78 -92 -93 -68 -87 51 12 232 106 327 171 51 34 136 87
189 118 53 31 149 95 214 141 66 47 134 95 152 108 175 122 308 246 340 315 9
21 32 58 50 82 17 24 32 47 32 50 0 4 27 35 60 71 32 35 62 77 66 93 15 72 72
172 208 367 59 84 152 181 243 253 65 52 103 98 103 126 0 26 -136 -40 -280
-135 -214 -141 -471 -405 -494 -506 -6 -25 -4 -28 19 -28 39 0 84 -27 91 -55
3 -13 1 -39 -4 -57 -6 -18 -10 -46 -10 -61 1 -57 -93 -121 -127 -88 -14 13
-46 16 -69 6 -10 -5 -42 -32 -71 -62 -66 -66 -80 -68 -71 -8 6 34 2 55 -13 91
-33 73 -28 101 44 244 36 71 65 141 65 154 0 24 -2 25 -48 19 -37 -4 -51 -2
-61 11 -12 14 -9 28 26 104 49 105 88 211 80 218 -3 3 -27 -10 -54 -29 -26
-19 -66 -44 -88 -55 -22 -11 -48 -35 -59 -52 -10 -18 -26 -41 -35 -50 -9 -10
-29 -33 -44 -51 l-28 -34 72 -7 c44 -4 77 -12 87 -22 14 -14 13 -16 -14 -26
-16 -6 -67 -22 -113 -36 -69 -20 -93 -32 -133 -70 -54 -51 -77 -53 -90 -9 -5
17 -16 53 -25 82 l-17 52 52 106 c72 147 126 227 217 318 180 180 331 236 671
252 80 4 144 3 147 -2 7 -12 178 -15 196 -3 10 5 25 3 45 -7 24 -12 53 -15
145 -10 195 8 327 47 466 136 28 17 84 42 125 55 41 14 99 34 128 45 73 29
126 28 157 -4 l25 -24 -1 57 c0 31 -4 79 -7 107 l-7 50 -95 2 c-149 3 -159 3
-185 -7 -13 -5 -95 -17 -182 -26 -87 -9 -201 -21 -253 -28 l-95 -12 -3 32 c-2
18 1 47 6 66 7 30 12 33 48 36 21 1 86 9 144 17 58 8 142 15 187 15 74 0 83
-2 101 -24 16 -21 30 -25 60 -17 1 1 -7 11 -18 24 l-21 22 32 13 c52 21 123
32 131 19 3 -6 39 -16 80 -23 73 -13 73 -13 96 12 22 25 29 68 14 90 -5 9 -24
8 -71 -4 -49 -12 -68 -13 -82 -4 -26 16 -47 16 -31 0 7 -7 12 -20 12 -29 0
-14 -13 -18 -67 -23 -38 -3 -138 -15 -223 -25 -85 -11 -198 -25 -250 -31 -52
-6 -104 -13 -115 -15 -33 -7 -43 7 -48 65 -2 30 -10 75 -17 99 -10 33 -10 48
-2 62 7 10 12 33 12 51 0 28 7 37 43 60 49 32 83 34 209 14z m-1605 -68 c-3
-8 -6 -5 -6 6 -1 11 2 17 5 13 3 -3 4 -12 1 -19z m1222 -45 c9 -10 29 -18 46
-18 34 0 43 -20 21 -50 -12 -16 -16 -17 -30 -6 -12 11 -19 11 -30 2 -26 -22
-76 14 -75 54 0 17 2 16 15 -7 15 -29 34 -37 34 -15 0 6 -4 19 -9 27 -9 14 -6
30 6 30 3 0 13 -8 22 -17z m-1222 -25 c-3 -7 -5 -2 -5 12 0 14 2 19 5 13 2 -7
2 -19 0 -25z m1323 -212 c0 -8 -7 -16 -15 -20 -10 -4 -15 1 -15 14 0 11 7 20
15 20 8 0 15 -6 15 -14z m-120 -12 c0 -8 -4 -12 -10 -9 -5 3 -10 10 -10 16 0
5 5 9 10 9 6 0 10 -7 10 -16z m-3459 -134 c5 0 9 -5 9 -11 0 -5 -4 -8 -9 -4
-5 3 -12 1 -16 -4 -3 -5 3 -14 12 -20 10 -6 13 -11 6 -11 -12 0 -43 38 -43 53
0 5 7 6 16 3 9 -3 20 -6 25 -6z m59 -24 c0 -8 -5 -18 -12 -22 -7 -4 -8 -3 -4
4 4 7 2 12 -4 12 -6 0 -8 5 -5 10 9 15 25 12 25 -4z m1069 -211 c-80 -93 -83
-95 -125 -95 -58 0 -184 22 -184 32 0 5 19 7 43 6 l42 -3 31 65 31 65 99 11
c54 6 109 12 122 13 19 1 10 -14 -59 -94z m-449 35 c0 -5 -5 -10 -11 -10 -6 0
-45 -22 -86 -50 -41 -27 -79 -50 -84 -50 -28 0 60 99 98 110 40 12 83 12 83 0z
m2526 -14 c6 -26 -10 -66 -27 -66 -19 0 -32 46 -20 69 16 28 39 27 47 -3z
m-3066 -11 c0 -8 -4 -15 -9 -15 -13 0 -22 16 -14 24 11 11 23 6 23 -9z m-143
-27 c-3 -8 -6 -5 -6 6 -1 11 2 17 5 13 3 -3 4 -12 1 -19z m-94 -50 c18 -28 1
-48 -42 -48 -67 0 -78 10 -32 31 23 10 41 23 41 29 0 15 21 8 33 -12z m864
-12 c-6 -14 28 -25 82 -27 l26 -1 -26 -11 c-14 -7 -32 -17 -40 -24 -8 -6 -25
-13 -39 -15 -16 -3 -3 -7 35 -12 33 -5 76 -12 95 -16 65 -15 -61 -11 -178 5
-109 15 -329 39 -459 51 -40 3 -73 10 -73 16 0 6 16 7 38 4 20 -3 71 -8 112
-11 41 -3 128 -13 193 -22 l118 -16 37 35 c32 31 69 57 81 58 2 0 1 -6 -2 -14z
m-590 -18 c-3 -8 -6 -5 -6 6 -1 11 2 17 5 13 3 -3 4 -12 1 -19z m313 8 c0 -3
-4 -8 -10 -11 -5 -3 -10 -1 -10 4 0 6 5 11 10 11 6 0 10 -2 10 -4z m-885 -58
c-59 -14 -145 -25 -150 -19 -19 18 21 26 150 28 l40 1 -40 -10z m572 -30 c-3
-8 -6 -5 -6 6 -1 11 2 17 5 13 3 -3 4 -12 1 -19z m540 -104 c-3 -3 -12 -4 -19
-1 -8 3 -5 6 6 6 11 1 17 -2 13 -5z m88 -14 c27 -7 27 -8 5 -8 -14 0 -38 4
-55 8 -27 7 -27 8 -5 8 14 0 39 -4 55 -8z m435 -14 c0 -3 -4 -8 -10 -11 -5 -3
-10 -1 -10 4 0 6 5 11 10 11 6 0 10 -2 10 -4z m-30 -10 c0 -3 -4 -8 -10 -11
-5 -3 -10 -1 -10 4 0 6 5 11 10 11 6 0 10 -2 10 -4z m235 -90 c16 -12 17 -16
6 -30 -18 -21 -28 -20 -41 4 -19 35 2 51 35 26z m-235 -21 c-15 -18 -71 -47
-78 -40 -3 2 3 8 12 11 14 5 15 9 4 16 -9 7 -8 8 5 4 10 -3 28 1 40 9 27 19
33 19 17 0z m-2419 -145 c31 -17 22 -35 -18 -37 -101 -5 -107 -3 -72 26 27 23
60 26 90 11z m395 -104 c-3 -12 -20 -29 -38 -37 -18 -9 -78 -39 -133 -66 -104
-52 -202 -89 -212 -80 -13 14 97 131 146 156 22 12 42 25 46 31 3 5 38 19 78
31 40 12 81 28 92 36 19 13 20 11 23 -18 2 -18 1 -41 -2 -53z m1384 25 c-5
-11 -10 -31 -10 -45 0 -14 -4 -26 -9 -26 -14 0 -5 72 11 81 19 12 20 11 8 -10z
m-55 -48 c-7 -21 -19 -38 -27 -38 -7 0 -19 -6 -26 -13 -8 -7 -18 -9 -24 -6 -6
4 -6 9 -1 13 5 3 12 14 16 24 4 9 15 20 24 24 10 4 24 13 31 20 20 20 21 16 7
-24z m-95 -64 c0 -5 -4 -7 -10 -4 -5 3 -10 -1 -10 -9 0 -9 -8 -16 -19 -16 -11
0 -27 -7 -35 -16 -9 -8 -16 -11 -16 -6 0 12 40 48 40 36 0 -5 5 -1 11 9 11 19
39 24 39 6z m462 -30 l27 1 -17 -30 c-19 -34 -37 -40 -29 -10 4 15 -2 25 -21
36 -15 8 -18 12 -7 8 11 -4 32 -6 47 -5z m-587 -39 c3 -5 1 -10 -4 -10 -6 0
-11 5 -11 10 0 6 2 10 4 10 3 0 8 -4 11 -10z m-57 -29 c-6 -10 -18 -17 -26
-13 -11 4 -8 8 9 18 31 17 31 17 17 -5z m303 5 c-7 -8 -11 -20 -10 -28 4 -31
-1 -37 -23 -29 -19 7 -25 4 -35 -20 -8 -20 -19 -29 -34 -29 -20 0 -21 2 -7 13
9 6 17 17 19 24 4 10 88 83 98 83 2 0 -2 -6 -8 -14z m-1833 -76 c-14 -22 -38
-35 -38 -20 0 7 38 40 47 40 2 0 -2 -9 -9 -20z m1712 16 c0 -2 -7 -7 -16 -10
-8 -3 -12 -2 -9 4 6 10 25 14 25 6z m-240 -35 c3 -2 -2 -2 -11 2 -9 3 -22 0
-28 -6 -8 -8 -11 -7 -11 4 0 31 15 31 50 0z m-1282 -21 c-3 -40 -21 -54 -32
-24 -3 8 -11 12 -16 9 -6 -4 -18 -4 -26 -1 -12 5 -9 11 13 31 15 13 36 25 46
25 14 0 17 -7 15 -40z m1503 8 c9 -18 9 -20 -4 -15 -11 4 -20 -5 -31 -28 -9
-18 -16 -38 -16 -43 0 -6 -14 -13 -30 -17 -17 -4 -28 -11 -24 -16 3 -5 1 -9
-4 -9 -17 0 -21 13 -11 31 8 16 6 19 -11 19 -13 0 -18 4 -14 11 3 6 15 9 25 6
11 -3 19 -2 19 2 0 12 67 81 78 81 6 0 16 -10 23 -22z m-397 -63 c3 -8 1 -15
-4 -15 -6 0 -10 7 -10 15 0 8 2 15 4 15 2 0 6 -7 10 -15z m-34 -15 c-6 -11
-12 -20 -14 -20 -2 0 -2 9 1 20 3 11 9 20 15 20 5 0 4 -9 -2 -20z m-989 -10
c-13 -11 -31 -20 -40 -20 -12 1 -11 5 8 20 13 11 31 20 40 20 12 -1 11 -5 -8
-20z m959 0 c0 -5 -4 -10 -10 -10 -5 0 -10 -6 -10 -13 0 -7 -9 -18 -19 -24
-15 -10 -22 -9 -31 2 -9 11 -9 15 -1 15 6 0 11 -5 11 -12 0 -6 3 -8 7 -4 4 4
8 15 8 24 0 9 6 16 13 15 6 -2 12 2 12 7 0 6 5 10 10 10 6 0 10 -4 10 -10z
m804 -37 c-34 -81 -99 -121 -179 -109 -40 6 -44 5 -47 -16 -2 -16 -11 -24 -28
-26 -30 -3 -95 37 -95 58 0 18 141 74 225 88 35 7 72 18 84 26 12 8 29 15 38
15 16 1 16 -2 2 -36z m-511 -25 c-2 -5 -10 -8 -18 -8 -11 0 -12 6 -3 33 12 32
12 32 18 7 4 -14 5 -28 3 -32z m1774 -47 c23 -11 49 -21 57 -21 29 0 24 -27
-7 -38 -31 -11 -277 -35 -285 -28 -7 7 26 61 50 82 12 12 41 31 63 42 39 20
41 20 60 2 11 -10 39 -27 62 -39z m-2257 -7 c0 -8 -5 -12 -10 -9 -6 4 -8 11
-5 16 9 14 15 11 15 -7z m410 1 c0 -2 -10 -9 -22 -15 -22 -11 -22 -10 -4 4 21
17 26 19 26 11z m-503 -50 c0 -8 -4 -15 -9 -15 -4 0 -8 7 -8 15 0 8 4 15 8 15
5 0 9 -7 9 -15z m398 -20 c-16 -14 -34 -25 -40 -25 -5 0 4 11 20 25 17 13 35
24 40 24 6 0 -3 -11 -20 -24z m310 4 c19 -20 18 -20 -10 -44 -17 -14 -39 -27
-50 -30 -11 -4 -29 -10 -40 -14 -59 -23 -93 -34 -123 -38 -18 -3 -39 -14 -45
-24 -7 -12 -23 -19 -41 -19 -16 0 -62 -16 -103 -35 -41 -19 -76 -35 -79 -35
-3 0 -17 -9 -31 -20 -14 -11 -33 -20 -42 -20 -10 0 -27 -13 -39 -30 -13 -16
-29 -30 -38 -30 -19 0 -79 -30 -155 -80 -34 -22 -72 -40 -84 -40 -13 0 -28 -7
-35 -15 -7 -8 -21 -15 -31 -15 -10 0 -20 -4 -24 -9 -3 -5 -20 -13 -38 -16 -32
-7 -97 -41 -108 -57 -3 -5 -16 -10 -27 -11 -12 -1 -22 -6 -22 -11 0 -5 -3 -7
-6 -3 -9 8 -64 -21 -64 -33 0 -6 -5 -10 -10 -10 -10 0 -69 -38 -80 -51 -3 -3
-17 -9 -32 -12 -15 -4 -33 -14 -42 -22 -16 -17 -101 -21 -91 -5 9 14 -8 12
-24 -2 -11 -11 -12 -10 -6 2 27 47 74 78 129 87 17 3 34 9 37 14 3 5 23 19 45
30 21 12 48 30 60 40 11 10 25 19 31 19 16 0 114 50 136 68 15 14 17 13 17 -7
0 -19 3 -20 21 -11 11 7 18 18 15 25 -3 8 9 25 27 40 27 21 34 22 43 11 8 -12
12 -12 22 4 9 14 8 20 -1 23 -7 3 -4 6 6 6 9 1 17 4 17 9 0 11 69 55 109 69
l36 12 -28 -24 c-15 -13 -33 -22 -41 -19 -7 3 -21 -7 -30 -21 -22 -33 -16 -41
11 -15 12 11 23 15 25 9 4 -12 49 5 87 33 13 10 32 18 42 18 11 0 27 8 37 18
18 18 69 44 112 57 14 4 44 21 67 36 23 16 49 29 58 29 9 0 33 9 53 20 20 11
55 28 77 38 38 18 152 78 218 114 42 23 60 23 82 -3z m-735 3 c0 -13 -12 -22
-22 -16 -10 6 -1 24 13 24 5 0 9 -4 9 -8z m-29 -29 c13 -16 12 -17 -3 -4 -10
7 -18 15 -18 17 0 8 8 3 21 -13z m1423 -29 c21 -8 22 -84 2 -123 -17 -32 -60
-54 -88 -45 -17 5 -18 12 -12 62 8 68 8 69 48 93 36 22 30 21 50 13z m-1550
-13 c3 -5 -1 -11 -9 -14 -9 -4 -12 -1 -8 9 6 16 10 17 17 5z m466 -16 c-13
-14 -28 -25 -34 -25 -6 0 3 11 19 25 39 31 45 32 15 0z m85 5 c-3 -5 -11 -10
-16 -10 -6 0 -7 5 -4 10 3 6 11 10 16 10 6 0 7 -4 4 -10z m-626 -26 c4 3 8 -1
8 -9 0 -11 -4 -12 -14 -4 -7 6 -13 17 -12 23 0 7 2 6 6 -2 2 -6 8 -10 12 -8z
m461 -24 c-19 -17 -41 -30 -50 -30 -8 0 5 14 30 30 57 38 65 38 20 0z m-518
13 c-6 -2 -10 -9 -6 -14 3 -5 -5 -9 -17 -9 -22 0 -22 0 -3 15 10 8 24 14 29
14 6 0 4 -3 -3 -6z m-45 -58 c-7 -7 -16 -10 -22 -6 -5 4 -16 6 -22 5 -7 -1
-18 -2 -23 -3 -6 0 -16 -12 -22 -26 -9 -21 -14 -23 -26 -12 -13 10 -15 9 -10
-5 4 -9 1 -19 -7 -22 -10 -3 -12 0 -9 12 3 9 -2 6 -10 -8 -8 -14 -15 -19 -16
-12 0 21 -19 13 -35 -15 -9 -16 -14 -20 -11 -11 3 9 0 18 -6 20 -7 3 22 21 63
42 41 21 80 43 87 49 7 5 15 7 18 4 4 -3 13 1 21 9 20 20 49 0 30 -21z m473
-4 c0 -5 -14 -14 -32 -20 -34 -12 -32 -6 4 15 13 6 24 12 26 13 1 1 2 -3 2 -8z
m-530 -15 c0 -3 -4 -8 -10 -11 -5 -3 -10 -1 -10 4 0 6 5 11 10 11 6 0 10 -2
10 -4z m1510 -11 c21 -25 -16 -65 -95 -104 -130 -64 -178 -38 -72 40 105 79
143 93 167 64z m-1020 -25 c0 -4 -7 -10 -15 -14 -8 -3 -15 -1 -15 5 0 6 -4 7
-10 4 -5 -3 -10 -2 -10 3 0 5 11 10 25 10 14 0 25 -4 25 -8z m-85 -30 c-16
-16 -34 -30 -39 -30 -12 1 49 60 61 60 4 0 -6 -13 -22 -30z m-581 -16 c9 -24
7 -28 -8 -15 -11 10 -20 10 -38 0 -14 -8 -18 -14 -10 -17 6 -2 12 -9 12 -15 0
-8 -4 -7 -12 1 -18 18 -41 15 -34 -4 3 -8 2 -12 -4 -9 -18 11 -10 23 33 48 52
31 53 31 61 11z m-110 -60 c3 -8 2 -12 -4 -9 -6 3 -10 10 -10 16 0 14 7 11 14
-7z m-40 -13 c-10 -10 -21 -17 -23 -15 -2 2 -38 -14 -80 -37 -42 -22 -65 -32
-53 -22 21 16 160 91 171 93 3 0 -4 -8 -15 -19z m3328 -46 c3 -13 1 -22 -3
-19 -5 3 -5 -6 1 -20 9 -24 7 -26 -16 -26 -18 0 -25 -4 -21 -14 6 -16 -34 -31
-43 -16 -8 12 -36 -11 -44 -37 -4 -14 -12 -20 -22 -16 -9 3 -14 -1 -14 -13 0
-10 -12 -29 -27 -41 -14 -13 -22 -23 -18 -23 5 0 -2 -11 -14 -24 -14 -15 -20
-30 -16 -37 5 -7 4 -10 -2 -6 -6 4 -30 -3 -53 -14 -24 -12 -61 -22 -84 -24
-22 -2 -50 -7 -61 -11 -14 -6 -9 6 20 42 38 46 52 61 115 113 14 11 30 25 37
31 7 5 15 10 19 10 4 0 25 18 46 40 22 22 43 40 47 40 4 0 16 9 26 20 10 11
24 20 32 20 7 0 13 4 13 9 0 7 28 22 76 40 1 1 4 -10 6 -24z m-994 -137 c17
-21 -11 -71 -62 -114 -43 -36 -47 -42 -45 -80 3 -46 -18 -86 -53 -105 -13 -7
-48 -31 -78 -54 -30 -23 -95 -59 -145 -79 -49 -21 -107 -45 -128 -53 -29 -13
-44 -28 -60 -62 -28 -58 -73 -87 -111 -70 -14 7 -26 15 -26 20 0 4 -17 9 -37
11 -45 6 -140 -21 -203 -58 -25 -15 -68 -39 -95 -54 -28 -14 -70 -41 -94 -58
-24 -18 -50 -32 -58 -32 -13 0 -92 -47 -103 -61 -3 -4 -39 -17 -80 -29 -85
-25 -275 -117 -395 -191 -44 -27 -110 -58 -146 -69 -46 -14 -87 -36 -130 -70
-35 -27 -72 -50 -82 -50 -10 0 -22 -12 -27 -26 -10 -25 -14 -26 -58 -21 -90
11 -118 -4 -215 -117 -48 -55 -108 -131 -133 -168 -26 -38 -50 -68 -54 -68
-13 0 -30 26 -36 57 -5 24 6 53 56 148 116 224 238 344 468 461 47 24 98 44
113 44 15 0 54 17 86 39 96 64 143 84 179 78 30 -5 37 -1 71 39 35 40 101 75
812 424 645 316 782 380 817 380 23 0 46 -6 52 -12z m-1078 -32 c0 -16 -245
-146 -275 -146 -14 0 9 22 63 63 60 44 212 104 212 83z m-1340 -168 c-1 -17
-47 -74 -55 -67 -3 3 6 19 20 35 14 16 25 32 25 37 0 4 2 7 5 7 3 0 5 -6 5
-12z m835 -112 c-66 -44 -126 -95 -187 -160 -69 -74 -111 -109 -189 -156 -55
-33 -111 -60 -124 -60 -30 0 -95 55 -95 81 0 10 10 27 22 39 40 37 503 280
534 280 6 0 31 9 55 20 88 39 80 19 -16 -44z m-791 28 c19 -18 21 -34 5 -34
-12 0 -79 39 -79 46 0 11 61 2 74 -12z m-338 -248 c14 5 11 -1 -11 -25 -39
-42 -67 -59 -58 -34 4 10 13 24 20 31 15 16 17 32 3 32 -5 0 -15 10 -21 23
-10 19 -8 19 18 -6 21 -19 35 -26 49 -21z m-101 -106 c-10 -11 -23 -20 -28
-20 -6 0 -2 9 8 20 10 11 23 20 28 20 6 0 2 -9 -8 -20z m474 -34 c7 -8 9 -25
5 -40 -4 -19 -1 -33 11 -46 28 -31 14 -53 -55 -89 -139 -71 -208 -119 -286
-196 -75 -74 -87 -92 -149 -220 -37 -77 -69 -142 -71 -144 -2 -3 -9 0 -15 6
-13 13 5 87 51 216 31 85 98 199 164 279 37 46 140 124 216 164 58 30 72 43
64 56 -16 26 44 39 65 14z m-509 -4 c0 -5 -12 -19 -26 -33 -78 -73 -234 -378
-304 -592 -6 -21 -14 -36 -17 -33 -13 13 98 302 168 438 61 120 179 264 179
220z m2080 -13 c0 -18 -23 -34 -115 -78 -49 -24 -98 -47 -108 -52 -12 -7 -19
-5 -23 5 -9 24 27 54 85 73 31 9 58 20 61 23 9 13 65 39 83 40 9 0 17 -5 17
-11z m2183 -259 c3 -12 0 -20 -8 -20 -7 0 -21 -17 -30 -37 -23 -49 -93 -141
-116 -153 -26 -15 -65 -12 -79 5 -18 22 -7 89 23 133 45 69 197 121 210 72z
m642 -230 c3 -5 -1 -10 -9 -10 -9 0 -16 5 -16 10 0 6 4 10 9 10 6 0 13 -4 16
-10z m-22 -20 c9 -11 12 -20 7 -20 -6 0 -10 -5 -10 -11 0 -7 -25 -36 -55 -64
-30 -29 -55 -58 -55 -64 0 -6 -4 -11 -10 -11 -12 0 -69 -57 -124 -124 -23 -28
-58 -68 -78 -89 -20 -21 -55 -73 -77 -115 -95 -178 -188 -294 -302 -377 -57
-43 -155 -98 -199 -114 -32 -11 -172 -29 -274 -36 -22 -2 -59 3 -83 10 -39 12
-48 11 -74 -3 -16 -9 -29 -23 -29 -30 0 -19 -36 -69 -79 -112 -45 -45 -110
-82 -181 -104 -30 -10 -68 -22 -85 -27 -16 -6 -37 -12 -46 -14 -9 -2 -38 -10
-63 -19 -26 -9 -54 -16 -63 -16 -20 0 -90 -46 -118 -77 -11 -13 -23 -23 -26
-23 -9 0 -109 -98 -109 -107 0 -13 -64 -64 -105 -84 -22 -10 -60 -37 -85 -59
-24 -22 -48 -40 -52 -40 -8 0 -98 -66 -108 -79 -3 -3 -27 -17 -53 -30 -26 -13
-61 -39 -77 -58 -16 -18 -34 -33 -39 -33 -5 0 -22 -6 -38 -14 -66 -34 -125
-56 -149 -56 -14 0 -37 -9 -51 -20 -14 -11 -41 -22 -60 -26 -19 -4 -39 -14
-45 -24 -6 -9 -19 -15 -28 -13 -9 2 -22 -3 -29 -11 -8 -9 -21 -16 -30 -16 -9
0 -23 -9 -31 -20 -8 -11 -20 -20 -26 -20 -7 0 -19 -7 -27 -15 -22 -21 -141
-85 -160 -85 -9 0 -17 -3 -17 -7 0 -9 -48 -33 -65 -33 -6 0 -21 -8 -35 -17
-13 -9 -31 -18 -40 -19 -8 -1 -34 -10 -58 -18 -24 -9 -47 -14 -52 -11 -4 3
-10 0 -12 -7 -5 -13 -59 -19 -216 -21 -99 -2 -115 0 -123 15 -5 10 -18 18 -28
18 -29 0 -43 23 -32 53 7 17 7 28 1 32 -6 4 -10 13 -10 21 0 8 4 13 9 10 4 -3
14 14 21 37 8 27 30 59 61 90 27 27 47 52 44 56 -2 4 7 14 20 21 13 7 22 17
19 21 -3 5 2 6 10 3 11 -4 16 0 16 10 0 9 4 16 8 16 4 0 25 15 45 34 20 18 50
39 67 46 16 7 30 16 30 21 0 5 7 9 15 9 9 0 18 7 21 15 4 8 10 12 15 9 5 -3
19 6 32 19 12 14 51 37 87 52 36 15 72 33 80 40 8 7 40 24 70 38 31 13 62 32
69 41 7 9 19 16 27 16 7 0 22 10 34 22 11 12 20 18 20 14 0 -4 18 11 40 32 21
22 41 35 43 29 1 -5 16 2 31 17 16 14 34 26 39 26 6 0 18 6 26 14 18 14 82 50
121 66 14 6 39 19 55 29 17 11 39 20 51 20 11 1 24 5 30 10 9 8 114 45 124 44
3 -1 16 5 30 12 46 24 201 72 338 105 51 12 131 40 178 62 84 41 93 52 85 101
-1 5 8 21 19 38 12 16 18 33 15 39 -8 13 61 82 105 106 41 21 96 43 125 49 46
9 101 18 118 18 9 1 17 4 17 8 0 4 12 9 28 12 15 3 42 19 61 36 28 25 35 39
37 76 2 25 6 50 9 55 10 16 55 12 55 -5 0 -8 7 -15 15 -15 19 0 67 -49 60 -61
-4 -5 1 -9 9 -9 15 0 25 6 90 61 17 14 58 41 91 59 99 54 177 102 239 147 32
24 62 43 68 43 9 0 262 111 310 136 14 8 35 14 45 14 11 0 35 14 53 30 18 17
36 30 40 30 3 0 14 15 24 34 18 35 86 91 146 121 21 11 63 19 108 21 41 1 76
5 80 8 9 10 17 7 35 -14z m-1827 -466 l36 -56 -18 -39 c-21 -47 -88 -92 -161
-107 -41 -9 -61 -8 -103 4 l-52 15 6 42 c12 72 46 112 138 157 45 22 90 40
100 40 11 0 32 -22 54 -56z m-1026 -1554 c0 -5 -7 -10 -16 -10 -8 0 -12 5 -9
10 3 6 10 10 16 10 5 0 9 -4 9 -10z"/>
<path d="M10770 6132 c0 -14 6 -22 16 -22 14 0 15 3 3 18 -7 9 -15 19 -16 21
-2 2 -3 -5 -3 -17z"/>
<path d="M10774 6081 c0 -12 6 -17 17 -14 10 3 15 11 12 19 -8 20 -29 17 -29
-5z"/>
<path d="M9373 4423 c-15 -5 -17 -23 -4 -23 5 0 11 7 15 15 3 8 4 15 3 14 -1
0 -8 -3 -14 -6z"/>
<path d="M7020 4534 c0 -17 22 -14 28 4 2 7 -3 12 -12 12 -9 0 -16 -7 -16 -16z"/>
<path d="M6107 3933 c-4 -3 -7 -11 -7 -17 0 -6 5 -5 12 2 6 6 9 14 7 17 -3 3
-9 2 -12 -2z"/>
<path d="M5925 3819 c-11 -17 0 -20 21 -4 17 13 17 14 2 15 -9 0 -20 -5 -23
-11z"/>
<path d="M5820 3759 c-11 -20 -11 -20 14 -4 30 20 32 25 11 25 -8 0 -19 -9
-25 -21z"/>
<path d="M9155 7129 c-4 -6 -5 -12 -2 -15 2 -3 7 2 10 11 7 17 1 20 -8 4z"/>
<path d="M8463 7079 c-18 -12 -33 -22 -33 -24 0 -8 37 8 60 25 33 26 13 25
-27 -1z"/>
<path d="M9916 7082 c-2 -4 -1 -14 5 -22 7 -12 9 -10 9 8 0 23 -5 28 -14 14z"/>
<path d="M9142 7040 c0 -14 2 -19 5 -12 2 6 2 18 0 25 -3 6 -5 1 -5 -13z"/>
<path d="M9330 7035 c-25 -26 -27 -44 -2 -23 9 8 25 18 35 21 9 4 17 10 17 15
0 16 -30 9 -50 -13z"/>
<path d="M9487 7032 c-18 -20 -22 -42 -9 -42 10 0 35 50 29 56 -2 2 -11 -4
-20 -14z"/>
<path d="M8268 6973 c-58 -63 -88 -115 -82 -142 7 -27 31 -61 44 -61 4 0 11
32 15 72 4 49 15 86 32 115 29 50 27 54 -9 16z"/>
<path d="M4427 6493 c-11 -10 -8 -47 6 -76 8 -18 20 -27 36 -27 28 0 93 38 86
51 -6 9 -102 59 -114 59 -4 0 -11 -3 -14 -7z"/>
<path d="M3385 6413 c-21 -11 -60 -17 -125 -19 -99 -3 -197 -23 -235 -48 -18
-12 -23 -25 -24 -68 -1 -73 -5 -87 -45 -181 -19 -45 -37 -98 -40 -117 -19
-128 -17 -136 34 -125 34 8 130 94 130 117 0 9 5 20 10 23 6 3 10 15 10 25 0
10 12 28 27 40 22 17 36 20 63 15 19 -3 47 -7 63 -8 15 -1 27 -4 27 -7 0 -3
14 -11 30 -18 17 -8 31 -22 31 -33 3 -41 18 -69 38 -69 9 0 34 12 56 25 22 14
49 25 61 25 34 0 36 12 5 31 -46 28 -66 81 -64 171 1 43 9 100 18 127 22 66
16 105 -16 108 -13 2 -37 -5 -54 -14z"/>
<path d="M4800 6397 c0 -8 9 -22 20 -32 22 -20 27 -7 10 26 -12 22 -30 25 -30
6z"/>
<path d="M8360 6311 c0 -6 4 -13 10 -16 6 -3 7 1 4 9 -7 18 -14 21 -14 7z"/>
<path d="M7951 6261 c-25 -7 -50 -36 -39 -46 8 -8 88 33 88 45 0 11 -13 11
-49 1z"/>
<path d="M1221 6217 c-15 -15 -14 -49 2 -81 22 -41 11 -166 -14 -166 -5 0 -9
-11 -9 -25 0 -14 -4 -25 -8 -25 -19 0 -41 -80 -47 -170 -7 -95 -25 -159 -54
-194 -12 -14 -13 -20 -3 -23 6 -3 12 -12 12 -20 0 -9 12 -41 28 -72 25 -52 27
-64 25 -167 -3 -125 10 -171 66 -232 48 -52 101 -69 203 -66 48 1 92 5 97 8 5
3 31 8 58 11 113 11 151 17 198 32 50 16 68 30 59 45 -3 4 4 8 16 8 11 0 32
12 45 28 20 23 31 27 77 28 30 0 60 4 67 8 7 5 36 11 64 15 48 6 53 9 104 76
67 87 153 241 153 276 0 14 -11 40 -25 59 -24 32 -25 38 -19 137 2 57 2 109
-2 115 -4 7 -9 22 -10 35 -2 13 -20 60 -42 105 -22 46 -51 109 -65 140 -21 46
-35 62 -69 79 -37 19 -53 21 -130 16 -48 -3 -90 -2 -93 3 -7 12 -86 -11 -92
-26 -3 -8 -11 -14 -18 -14 -7 0 -24 -9 -38 -20 -14 -11 -49 -25 -78 -30 -28
-6 -57 -14 -63 -18 -20 -16 -113 -14 -143 2 -15 8 -47 33 -71 56 -24 22 -51
40 -61 40 -10 0 -21 3 -25 7 -16 17 -84 31 -95 20z m425 -250 c34 -30 28 -51
-23 -73 -60 -27 -94 -24 -122 9 -22 27 -23 29 -7 45 15 15 79 38 113 41 7 1
24 -10 39 -22z m-82 -187 c16 -13 19 -77 4 -86 -4 -3 -8 -14 -8 -25 0 -28 -24
-23 -64 14 -54 50 -65 95 -26 110 23 8 78 1 94 -13z m-4 -149 c0 -5 9 -13 20
-16 11 -4 18 -11 15 -16 -4 -5 1 -9 9 -9 9 0 16 4 16 9 0 5 9 11 20 14 11 3
20 2 20 -3 0 -4 18 -7 40 -6 36 2 39 0 42 -28 2 -21 9 -30 25 -32 12 -2 23 3
27 11 3 8 1 15 -5 15 -6 0 -6 7 1 20 9 17 21 20 80 20 58 0 74 -4 91 -21 19
-19 19 -22 5 -38 -8 -9 -37 -28 -64 -41 -37 -18 -54 -35 -70 -67 -11 -24 -17
-43 -12 -43 5 0 7 -15 3 -32 -7 -33 -49 -76 -68 -69 -5 2 -31 5 -56 7 -75 3
-88 10 -88 47 0 86 -2 107 -13 107 -7 0 -7 4 1 14 10 12 9 14 -7 9 -16 -4 -19
1 -20 34 -1 21 -6 39 -12 41 -6 2 -8 8 -4 13 3 5 -2 9 -10 9 -8 0 -18 -4 -21
-10 -11 -18 -21 -11 -23 16 -1 15 3 33 9 40 13 16 49 19 49 5z m266 -473 c27
-19 40 -34 32 -37 -7 -2 -17 -9 -21 -15 -6 -7 -7 -4 -3 7 6 20 -19 24 -27 3
-6 -14 -47 -29 -47 -17 0 4 -14 7 -31 6 -31 -2 -89 29 -96 52 -5 15 40 29 100
32 40 2 55 -3 93 -31z"/>
<path d="M1600 5550 c0 -12 8 -12 35 0 18 8 17 9 -7 9 -16 1 -28 -3 -28 -9z"/>
<path d="M10030 6048 c0 -12 36 -78 42 -78 2 0 4 13 5 29 2 21 -5 34 -22 45
-19 12 -25 13 -25 4z"/>
<path d="M8963 6035 c-13 -9 -23 -11 -25 -5 -2 7 -35 -1 -83 -17 -44 -16 -84
-28 -90 -28 -18 0 -153 -84 -159 -100 -3 -8 -12 -15 -21 -15 -8 0 -15 -4 -15
-10 0 -5 -7 -10 -16 -10 -10 0 -14 -5 -10 -16 3 -8 2 -12 -4 -9 -6 3 -10 1
-10 -4 0 -6 -6 -11 -14 -11 -22 0 -107 -97 -100 -115 5 -11 2 -14 -10 -9 -9 3
-16 2 -16 -4 0 -6 6 -13 13 -15 6 -3 2 -6 -10 -6 -13 -1 -24 -10 -29 -23 -3
-12 -13 -28 -20 -36 -8 -7 -14 -22 -14 -32 0 -10 -4 -20 -9 -22 -10 -4 -68
-93 -110 -171 l-31 -57 33 14 c35 15 222 103 249 117 10 5 25 9 33 9 9 0 20
10 25 23 14 32 50 216 50 252 0 22 9 40 29 59 33 31 41 32 281 39 108 3 118 5
165 34 41 25 185 87 245 105 17 6 -78 52 -125 61 -16 4 -64 9 -105 12 -58 4
-80 2 -97 -10z"/>
<path d="M10033 5929 c-5 -5 -43 -13 -84 -18 l-74 -10 88 2 c86 2 88 1 82 -20
-3 -12 0 -25 6 -28 14 -9 16 -6 23 40 6 35 5 41 -12 42 -11 1 -24 -3 -29 -8z"/>
<path d="M9435 5899 c-79 -20 -185 -60 -185 -70 0 -3 -20 -14 -45 -23 -25 -10
-45 -22 -45 -27 0 -4 26 5 58 22 59 30 208 82 275 94 20 4 37 11 37 16 0 12
-10 10 -95 -12z"/>
<path d="M7665 5765 l-90 -43 51 -1 c82 -1 113 8 129 40 16 31 19 49 8 48 -5
0 -48 -20 -98 -44z"/>
<path d="M0 5438 l0 -367 23 -3 c32 -5 147 10 161 20 6 5 24 12 39 16 39 9 30
31 -52 126 -70 82 -101 147 -101 215 0 22 -5 67 -11 100 -10 51 -17 125 -19
196 0 9 -9 27 -20 40 -19 24 -19 23 -20 -343z"/>
<path d="M6546 5722 c-10 -15 -33 -37 -50 -47 l-31 -19 55 -7 c30 -4 55 -7 55
-6 0 1 -2 26 -5 55 l-5 52 -19 -28z"/>
<path d="M9076 5735 c-11 -8 -16 -18 -12 -22 3 -4 16 3 29 15 24 25 12 29 -17
7z"/>
<path d="M7398 5734 c-3 -3 -24 -5 -46 -6 -23 0 -52 -9 -69 -20 l-28 -20 78 5
c63 3 83 8 100 26 l21 21 -25 0 c-14 0 -28 -3 -31 -6z"/>
<path d="M3996 5635 c-27 -13 -79 -26 -116 -30 -58 -6 -69 -10 -74 -28 -10
-38 -7 -86 9 -123 l14 -34 38 20 c56 30 121 27 166 -7 20 -16 40 -39 46 -53
12 -32 31 -146 31 -191 0 -20 6 -43 13 -53 12 -16 14 -7 14 70 0 49 8 135 18
192 17 100 17 104 -1 138 -10 19 -22 34 -26 34 -5 0 -8 6 -8 13 0 12 -61 78
-70 76 -3 0 -27 -11 -54 -24z"/>
<path d="M480 5544 c0 -7 -6 -11 -13 -8 -10 4 -12 -3 -9 -25 2 -17 8 -28 13
-25 5 3 6 -3 2 -12 -5 -13 -3 -16 10 -11 9 3 18 3 21 -1 5 -9 57 -8 106 2 27
6 32 5 20 -4 -12 -10 -12 -11 5 -5 11 5 31 9 45 10 41 4 42 4 36 20 -3 8 -1
15 4 15 12 0 13 20 1 38 -12 20 -241 26 -241 6z"/>
<path d="M5360 5060 c0 -5 5 -10 11 -10 5 0 7 5 4 10 -3 6 -8 10 -11 10 -2 0
-4 -4 -4 -10z"/>
<path d="M7652 5005 c-7 -8 -9 -15 -4 -15 5 0 15 7 22 15 16 19 -1 19 -18 0z"/>
<path d="M7575 4940 c-3 -5 -2 -10 4 -10 5 0 13 5 16 10 3 6 2 10 -4 10 -5 0
-13 -4 -16 -10z"/>
<path d="M4214 4897 c3 -19 27 -70 51 -113 25 -43 48 -87 51 -96 8 -27 48 -32
98 -13 32 12 62 16 98 12 77 -7 91 8 71 76 -8 29 -17 55 -19 59 -2 3 -24 -5
-49 -18 -43 -25 -45 -25 -80 -9 -19 10 -35 21 -35 26 0 5 -7 9 -16 9 -9 0 -30
11 -46 26 -17 14 -53 36 -81 50 l-50 26 7 -35z"/>
<path d="M7510 4900 c-8 -5 -11 -12 -7 -16 4 -4 13 -2 19 4 15 15 7 24 -12 12z"/>
<path d="M7450 4850 c-13 -9 -13 -11 0 -19 10 -7 17 -6 22 2 17 26 5 35 -22
17z"/>
<path d="M3481 4186 c-6 -16 -17 -26 -24 -23 -7 3 -21 -1 -31 -9 -23 -17 -40
-157 -31 -261 l7 -73 46 -31 46 -31 27 30 c23 25 28 44 34 108 8 85 -5 183
-33 243 -9 20 -19 45 -23 56 -6 18 -7 17 -18 -9z"/>
<path d="M12694 1959 c-56 -85 -123 -188 -150 -229 -27 -41 -53 -80 -59 -87
-5 -6 -30 -41 -55 -78 -25 -37 -58 -86 -75 -109 -16 -22 -45 -72 -64 -111 -30
-61 -104 -181 -120 -195 -4 -3 -18 -21 -33 -40 -78 -103 -262 -271 -383 -348
-38 -25 -71 -49 -73 -54 -2 -4 -8 -8 -13 -8 -10 0 -95 -55 -144 -92 -16 -13
-52 -39 -80 -59 -27 -19 -75 -53 -105 -74 -30 -21 -104 -73 -165 -114 -60 -41
-144 -101 -185 -133 -41 -32 -124 -95 -184 -140 l-110 -83 1049 -3 c576 -1
1050 -1 1052 1 2 2 2 477 1 1057 l-3 1052 -101 -153z"/>
</g>
</svg>
